{"asset":{"generator":"Khronos glTF Blender I/O v1.7.33","version":"2.0"},"scene":0,"scenes":[{"name":"Scene","nodes":[61]}],"nodes":[{"name":"Foot.L","rotation":[0.000009253206371795386,0.702951967716217,0.7112374305725098,0.000009438491360924672],"scale":[1,1.0000001192092896,1.0000001192092896],"translation":[0.18941077589988708,0.02466287463903427,-0.045055437833070755]},{"mesh":1,"name":"Head","rotation":[3.539026494081554e-8,0.0002751016290858388,-1.2961258802346443e-11,1],"scale":[0.5861736536026001,0.5861736536026001,0.5861735939979553],"translation":[0.0006400850834324956,-1.5722905993461609,0.00310438871383667]},{"children":[1],"name":"Head","rotation":[-0.08495309203863144,-0.0002744794182945043,0.000023338987375609577,0.9963849186897278],"scale":[0.9999999403953552,1,1],"translation":[6.203483039757263e-12,0.11423497647047043,-1.3836436885128478e-8]},{"children":[2],"name":"Neck","rotation":[-0.04415668919682503,6.773555583095003e-7,-3.0499089920255074e-9,0.9990246295928955],"scale":[1,0.9999998807907104,1],"translation":[-9.836579467625839e-12,0.36067166924476624,7.561065551442425e-9]},{"name":"Pinky3.L","rotation":[-0.6258834004402161,0.05437534302473068,0.06589251011610031,0.7752234935760498],"scale":[1,1.000000238418579,1.000000238418579],"translation":[-4.321358559877808e-8,0.057426802814006805,-3.642340828946544e-8]},{"children":[4],"name":"Pinky2.L","rotation":[-0.3446221351623535,-0.04705832526087761,-0.23873385787010193,0.9066572189331055],"scale":[1,1.000000238418579,1.0000001192092896],"translation":[-6.099070759546521e-8,0.18747322261333466,1.6765450538969162e-7]},{"children":[5],"name":"Pinky1.L","rotation":[0.02570825070142746,-0.004075547214597464,0.2568667232990265,0.9660962820053101],"scale":[0.9999999403953552,1,1.0000001192092896],"translation":[1.4744488296969394e-8,0.4400973916053772,-4.0775962162342694e-8]},{"name":"Middle3.L","rotation":[-0.5289636254310608,0.023663373664021492,-0.054076265543699265,0.846589207649231],"scale":[1,1.000000238418579,1.000000238418579],"translation":[-1.862645149230957e-9,0.0710521787405014,7.474591257050633e-8]},{"children":[7],"name":"Middle2.L","rotation":[-0.4973129332065582,0.045301299542188644,-0.1355454921722412,0.8557190299034119],"scale":[0.9999998211860657,0.9999998211860657,0.9999997615814209],"translation":[6.210495229197477e-8,0.1921038031578064,2.031660102375099e-7]},{"children":[8],"name":"Middle1.L","rotation":[0.051888495683670044,-0.011247000657022,0.026129933074116707,0.9982476234436035],"scale":[0.9999999403953552,1,0.9999999403953552],"translation":[5.261921032229111e-8,0.4400973916053772,2.249270636411893e-8]},{"name":"Index3.L","rotation":[-0.6348739266395569,-0.03503994271159172,-0.08988803625106812,0.766568660736084],"scale":[0.9999999403953552,1.000000238418579,1.0000001192092896],"translation":[-2.412168953469518e-8,0.05768146738409996,-6.5673496862928e-8]},{"children":[10],"name":"Index2.L","rotation":[-0.3651354908943176,0.10017602890729904,-0.04585028812289238,0.9244126081466675],"scale":[0.9999997615814209,0.9999999403953552,0.9999998211860657],"translation":[9.268246259352964e-8,0.1958262026309967,1.2399348747749173e-7]},{"children":[11],"name":"Index1.L","rotation":[0.03599829599261284,-0.020110031589865685,-0.20760692656040192,0.9773429036140442],"scale":[1,1.0000001192092896,1],"translation":[2.950934074874567e-8,0.4400973618030548,-4.021425326072858e-8]},{"name":"Thumb2.L","rotation":[-0.6803321838378906,0.18977044522762299,0.2531893849372864,0.6610828042030334],"scale":[1,1,1.000000238418579],"translation":[-4.527532126985534e-8,0.16450168192386627,3.133175141556421e-8]},{"children":[13],"name":"Thumb1.L","rotation":[0.01971290074288845,-0.011697828769683838,-0.5988215804100037,0.8005543947219849],"scale":[1,0.9999998211860657,1],"translation":[3.0097723424660217e-8,0.4400973618030548,-4.084596838538346e-8]},{"children":[6,9,12,14],"name":"LowerArm.L","rotation":[-0.011903311125934124,0.26757490634918213,-0.23834533989429474,0.9335167407989502],"scale":[0.9999997019767761,0.9999997019767761,0.9999997615814209],"translation":[1.36638167447245e-9,0.38782966136932373,-1.851016762088875e-8]},{"mesh":2,"name":"ShoulderPad.L","rotation":[0.5292742848396301,0.5009682774543762,0.4689018130302429,0.4990299344062805],"scale":[0.586173415184021,0.5861735343933105,0.5861734747886658],"translation":[-0.0059603676199913025,0.2222509651590137,0.08944430947303772]},{"children":[15,16],"name":"UpperArm.L","rotation":[-0.6079521775245667,-0.40905946493148804,-0.5435330867767334,0.4094341993331909],"scale":[1.000000238418579,1.0000001192092896,1.0000001192092896],"translation":[7.765973464302078e-8,0.14029666781425476,6.883554171110973e-9]},{"children":[17],"name":"Shoulder.L","rotation":[-0.056835856288671494,0.010001137852668762,-0.2543322741985321,0.965393602848053],"scale":[0.9999999403953552,0.9999998807907104,0.9999998807907104],"translation":[0.08883769065141678,0.18167772889137268,0.006313622929155827]},{"name":"Pinky3.R","rotation":[-0.6258833408355713,-0.05437538027763367,-0.06589251756668091,0.7752235531806946],"scale":[0.9999998807907104,1,1.0000001192092896],"translation":[-7.895908993305056e-8,0.0574268139898777,7.153973768936339e-8]},{"children":[19],"name":"Pinky2.R","rotation":[-0.34462207555770874,0.047058332711458206,0.23873379826545715,0.9066572785377502],"scale":[1.0000001192092896,0.9999999403953552,1],"translation":[1.0854672893856332e-7,0.18747331202030182,1.968479494962594e-7]},{"children":[20],"name":"Pinky1.R","rotation":[0.025708261877298355,0.004075521137565374,-0.2568667232990265,0.9660962820053101],"scale":[0.9999997615814209,0.9999998807907104,1],"translation":[3.4326601561218695e-9,0.44009727239608765,1.3584298130808747e-7]},{"name":"Middle3.R","rotation":[-0.528963565826416,-0.023663364350795746,0.054076310247182846,0.8465892672538757],"scale":[1,1.0000001192092896,1],"translation":[3.206181631298932e-8,0.07105204463005066,1.944041088108861e-7]},{"children":[22],"name":"Middle2.R","rotation":[-0.4973130524158478,-0.04530130326747894,0.135545551776886,0.8557189702987671],"scale":[1,1.0000001192092896,1.000000238418579],"translation":[-4.8368701044410045e-8,0.19210387766361237,2.3948347305235984e-8]},{"children":[23],"name":"Middle1.R","rotation":[0.05188849940896034,0.011247009970247746,-0.02612994983792305,0.9982476234436035],"scale":[0.9999998807907104,0.9999999403953552,0.9999998807907104],"translation":[2.498502738035313e-8,0.44009730219841003,7.956564473943217e-8]},{"name":"Index3.R","rotation":[-0.6348738074302673,0.035040002316236496,0.08988796919584274,0.7665687799453735],"scale":[1,1.000000238418579,1.0000003576278687],"translation":[-3.3071970051423705e-8,0.057681649923324585,-9.115483834420957e-8]},{"children":[25],"name":"Index2.R","rotation":[-0.36513543128967285,-0.10017604380846024,0.04585033655166626,0.9244126081466675],"scale":[0.9999998807907104,0.9999998807907104,0.9999998807907104],"translation":[2.2790537457240134e-8,0.19582629203796387,2.146231139477095e-7]},{"mesh":3,"name":"AK","rotation":[0.07112709432840347,0.07164561003446579,0.5258881449699402,0.8445410132408142],"scale":[0.41791191697120667,0.41791194677352905,0.41791197657585144],"translation":[0.01034456491470337,0.15148556033937458,-0.054102301597595215]},{"name":"GrenadeLauncher","rotation":[0.35700371861457825,-0.57308030128479,-0.6069043278694153,0.419278621673584],"translation":[0.00537911057472229,0.5421106795486641,-0.06127065420150757]},{"name":"Knife_1","rotation":[0.4981456696987152,-0.8667939305305481,0.013454888015985489,0.01838843896985054],"scale":[0.18331807851791382,0.1833181083202362,0.1833181083202362],"translation":[0.06869226694107056,0.14063244859544757,-0.05446961522102356]},{"name":"Knife_2","rotation":[0.5300043225288391,-0.8474826812744141,0.027956372126936913,0.009328817017376423],"scale":[0.1751766800880432,0.1751766949892044,0.1751766800880432],"translation":[0.046184927225112915,0.1520955840763283,-0.04655146598815918]},{"name":"Pistol","rotation":[0.0752420425415039,0.07854770869016647,0.4960801303386688,0.8614368438720703],"scale":[0.10764823108911514,0.10764825344085693,0.10764825344085693],"translation":[0.0017144978046417236,0.136941699188633,-0.0563889741897583]},{"name":"Revolver","rotation":[0.06790197640657425,0.09356407076120377,0.46245670318603516,0.8790727853775024],"scale":[0.10991810262203217,0.10991813242435455,0.11939284205436707],"translation":[-0.03695785999298096,0.13591125408975605,-0.044799983501434326]},{"name":"Revolver_Small","rotation":[0.05379278212785721,0.0647299513220787,0.4414602220058441,0.8933248519897461],"scale":[0.10129917412996292,0.10129920393228531,0.11003094166517258],"translation":[-0.017013221979141235,0.14340185920564655,-0.05664035677909851]},{"name":"RocketLauncher","rotation":[0.06747303903102875,0.06883944571018219,0.525597870349884,0.84525465965271],"scale":[0.20668627321720123,0.20668630301952362,0.20668631792068481],"translation":[0.02095639705657959,0.15405443112222675,-0.06786173582077026]},{"name":"ShortCannon","rotation":[0.058960482478141785,0.031489044427871704,0.692054033279419,0.7187442779541016],"scale":[0.2380787879228592,0.23807881772518158,0.23807884752750397],"translation":[-0.017482757568359375,0.20411905447809223,-0.05634644627571106]},{"name":"Shotgun","rotation":[0.4583534896373749,-0.47960832715034485,-0.5488527417182922,0.5085752010345459],"translation":[-0.03956213593482971,0.19722810189096454,-0.07035121321678162]},{"name":"Shovel","rotation":[0.8469375967979431,0.5310943126678467,-0.013896036893129349,0.021034356206655502],"scale":[0.7433924078941345,0.8032749891281128,0.803274929523468],"translation":[-0.0042816102504730225,0.17567297617761615,-0.06255412101745605]},{"name":"SMG","rotation":[0.338966429233551,-0.5780693292617798,-0.6224789023399353,0.40429893136024475],"translation":[-0.008675217628479004,0.14591517845956806,-0.062372058629989624]},{"name":"Sniper","rotation":[0.032933976501226425,0.036410339176654816,0.5895998477935791,0.8062020540237427],"scale":[0.21388868987560272,0.21388870477676392,0.21388870477676392],"translation":[0.005934715270996094,0.1623790840324593,-0.05194735527038574]},{"name":"Sniper_2","rotation":[0.3192978501319885,-0.544323742389679,-0.650169312953949,0.4231317639350891],"scale":[0.9165812134742737,0.9165812134742737,0.916581392288208],"translation":[-0.03381234407424927,0.18392693797914508,-0.030244827270507812]},{"children":[26,27,28,29,30,31,32,33,34,35,36,37,38,39,40],"name":"Index1.R","rotation":[0.03599829599261284,0.020110052078962326,0.20760692656040192,0.9773428440093994],"scale":[0.9999999403953552,1.0000001192092896,1],"translation":[9.534419476153744e-9,0.44009730219841003,1.3839414236826997e-7]},{"name":"Thumb2.R","rotation":[-0.6803321838378906,-0.1897704154253006,-0.2531893849372864,0.6610828042030334],"scale":[1.000000238418579,1.0000004768371582,1.0000007152557373],"translation":[-7.66713839084332e-8,0.1645016223192215,-2.0707260262042837e-7]},{"children":[42],"name":"Thumb1.R","rotation":[0.019712870940566063,0.011697890236973763,0.5988215208053589,0.8005543947219849],"scale":[0.9999999403953552,0.9999998211860657,1],"translation":[-1.356551138087525e-8,0.4400973320007324,1.3936042364548484e-7]},{"children":[21,24,41,43],"name":"LowerArm.R","rotation":[-0.023530535399913788,-0.2203482836484909,0.6326858997344971,0.7420253157615662],"scale":[0.9999999403953552,0.9999997615814209,0.9999997615814209],"translation":[5.371864730818743e-9,0.38782960176467896,-3.212390708995372e-8]},{"mesh":4,"name":"ShoulderPad.R","rotation":[0.5292742848396301,-0.5009682774543762,-0.4689018130302429,0.49902987480163574],"scale":[0.586173415184021,0.5861735343933105,0.5861734747886658],"translation":[0.005960345268249512,0.2222509800601749,0.08944430947303772]},{"children":[44,45],"name":"UpperArm.R","rotation":[-0.6079522371292114,0.4090593755245209,0.5435330867767334,0.40943416953086853],"scale":[1.000000238418579,1.000000238418579,1.0000003576278687],"translation":[-2.9668358436651943e-8,0.1402965486049652,-6.2486833485309035e-9]},{"children":[46],"name":"Shoulder.R","rotation":[-0.05683571845293045,-0.010000552982091904,0.2543322741985321,0.9653937220573425],"scale":[0.9999998807907104,0.9999997019767761,0.9999998211860657],"translation":[-0.0875609740614891,0.1816776990890503,0.006313725840300322]},{"children":[3,18,47],"name":"Torso","rotation":[0.003943133167922497,-8.323260090037365e-7,8.818669683385849e-10,0.9999922513961792],"scale":[1,1.0000001192092896,1.000000238418579],"translation":[5.828938720586763e-11,0.2985784709453583,-3.8520839296118936e-10]},{"children":[48],"name":"Abdomen","rotation":[0.16683147847652435,4.318997639529698e-7,1.0312019327329836e-7,0.985985517501831],"translation":[3.499668610462692e-11,0.31433814764022827,-8.743496593410782e-9]},{"children":[49],"name":"Hips","rotation":[-0.05076881870627403,-2.673302219591278e-7,-2.275165833509618e-8,0.9987104535102844],"scale":[1,1.0000001192092896,1],"translation":[-0.0014799016062170267,-0.33757874369621277,-0.09167235344648361]},{"name":"LowerLeg.L","rotation":[0.4875454604625702,0.005552489776164293,0.011973308399319649,0.8729978799819946],"scale":[0.9999999403953552,0.9999975562095642,0.9999997019767761],"translation":[-2.2525508569515296e-8,0.3387986421585083,3.112365831725583e-8]},{"children":[51],"name":"UpperLeg.L","rotation":[0.9496905207633972,0.011913235299289227,0.002079984173178673,0.31295639276504517],"scale":[1.0000003576278687,1.0000014305114746,1.0000041723251343],"translation":[0.17701509594917297,0.07240482419729233,-0.10135387629270554]},{"name":"LowerLeg.R","rotation":[0.4875454008579254,-0.005552488844841719,-0.011973312124609947,0.8729978799819946],"scale":[0.9999999403953552,0.9999974966049194,0.999999463558197],"translation":[-1.1737090410690598e-8,0.33879849314689636,-4.8290718979160374e-8]},{"children":[53],"name":"UpperLeg.R","rotation":[0.9496905207633972,-0.011913455091416836,-0.002079408848658204,0.3129563629627228],"scale":[1,1.000001311302185,1.0000038146972656],"translation":[-0.1786980777978897,0.07240481674671173,-0.10135414451360703]},{"children":[50,52,54],"name":"Body","rotation":[-1.3040623692006648e-8,1.0616869872137613e-7,-1.304061747475771e-8,1],"scale":[1,1.0000001192092896,1.0000001192092896],"translation":[0.0021530152298510075,0.7305232882499695,0.06474070996046066]},{"name":"PoleTarget.L","rotation":[-3.552693350009767e-15,1.1920937481590954e-7,-8.47033149202692e-22,1],"scale":[1,1.0000001192092896,1.0000001192092896],"translation":[0.1859801709651947,0.5047166347503662,0.9631468653678894]},{"name":"Foot.R","rotation":[0.000009507130926067475,-0.702951967716217,-0.7112374305725098,0.000009103298907575663],"scale":[1,1.0000001192092896,1.0000001192092896],"translation":[-0.18678782880306244,0.02466287463903427,-0.04505561664700508]},{"name":"PoleTarget.R","rotation":[-3.552734007591235e-15,-5.960464477539062e-7,3.388132596810768e-21,1],"scale":[1,1.0000001192092896,1.0000001192092896],"translation":[-0.18335816264152527,0.5047166347503662,0.9631466865539551]},{"children":[0,55,56,57,58],"name":"Root","rotation":[-2.9802322387695312e-8,2.3841855067985307e-7,8.470329472543003e-22,1],"scale":[1,0.9999998807907104,0.9999998807907104],"translation":[-0.0013114692410454154,-0.0024153697304427624,-0.00011468418961158022]},{"mesh":0,"name":"Body","skin":0},{"children":[60,59],"name":"CharacterArmature"}],"animations":[{"channels":[{"sampler":0,"target":{"node":0,"path":"translation"}},{"sampler":1,"target":{"node":0,"path":"rotation"}},{"sampler":2,"target":{"node":55,"path":"translation"}},{"sampler":3,"target":{"node":55,"path":"rotation"}},{"sampler":4,"target":{"node":50,"path":"translation"}},{"sampler":5,"target":{"node":50,"path":"rotation"}},{"sampler":6,"target":{"node":49,"path":"translation"}},{"sampler":7,"target":{"node":49,"path":"rotation"}},{"sampler":8,"target":{"node":48,"path":"translation"}},{"sampler":9,"target":{"node":48,"path":"rotation"}},{"sampler":10,"target":{"node":3,"path":"translation"}},{"sampler":11,"target":{"node":3,"path":"rotation"}},{"sampler":12,"target":{"node":2,"path":"translation"}},{"sampler":13,"target":{"node":2,"path":"rotation"}},{"sampler":14,"target":{"node":18,"path":"translation"}},{"sampler":15,"target":{"node":18,"path":"rotation"}},{"sampler":16,"target":{"node":17,"path":"translation"}},{"sampler":17,"target":{"node":17,"path":"rotation"}},{"sampler":18,"target":{"node":15,"path":"translation"}},{"sampler":19,"target":{"node":15,"path":"rotation"}},{"sampler":20,"target":{"node":6,"path":"translation"}},{"sampler":21,"target":{"node":6,"path":"rotation"}},{"sampler":22,"target":{"node":5,"path":"translation"}},{"sampler":23,"target":{"node":5,"path":"rotation"}},{"sampler":24,"target":{"node":4,"path":"translation"}},{"sampler":25,"target":{"node":4,"path":"rotation"}},{"sampler":26,"target":{"node":9,"path":"translation"}},{"sampler":27,"target":{"node":9,"path":"rotation"}},{"sampler":28,"target":{"node":8,"path":"translation"}},{"sampler":29,"target":{"node":8,"path":"rotation"}},{"sampler":30,"target":{"node":7,"path":"translation"}},{"sampler":31,"target":{"node":7,"path":"rotation"}},{"sampler":32,"target":{"node":12,"path":"translation"}},{"sampler":33,"target":{"node":12,"path":"rotation"}},{"sampler":34,"target":{"node":11,"path":"translation"}},{"sampler":35,"target":{"node":11,"path":"rotation"}},{"sampler":36,"target":{"node":10,"path":"translation"}},{"sampler":37,"target":{"node":10,"path":"rotation"}},{"sampler":38,"target":{"node":14,"path":"translation"}},{"sampler":39,"target":{"node":14,"path":"rotation"}},{"sampler":40,"target":{"node":13,"path":"translation"}},{"sampler":41,"target":{"node":13,"path":"rotation"}},{"sampler":42,"target":{"node":47,"path":"translation"}},{"sampler":43,"target":{"node":47,"path":"rotation"}},{"sampler":44,"target":{"node":46,"path":"translation"}},{"sampler":45,"target":{"node":46,"path":"rotation"}},{"sampler":46,"target":{"node":44,"path":"translation"}},{"sampler":47,"target":{"node":44,"path":"rotation"}},{"sampler":48,"target":{"node":21,"path":"translation"}},{"sampler":49,"target":{"node":21,"path":"rotation"}},{"sampler":50,"target":{"node":20,"path":"translation"}},{"sampler":51,"target":{"node":20,"path":"rotation"}},{"sampler":52,"target":{"node":19,"path":"translation"}},{"sampler":53,"target":{"node":19,"path":"rotation"}},{"sampler":54,"target":{"node":24,"path":"translation"}},{"sampler":55,"target":{"node":24,"path":"rotation"}},{"sampler":56,"target":{"node":23,"path":"translation"}},{"sampler":57,"target":{"node":23,"path":"rotation"}},{"sampler":58,"target":{"node":22,"path":"translation"}},{"sampler":59,"target":{"node":22,"path":"rotation"}},{"sampler":60,"target":{"node":41,"path":"translation"}},{"sampler":61,"target":{"node":41,"path":"rotation"}},{"sampler":62,"target":{"node":26,"path":"translation"}},{"sampler":63,"target":{"node":26,"path":"rotation"}},{"sampler":64,"target":{"node":25,"path":"translation"}},{"sampler":65,"target":{"node":25,"path":"rotation"}},{"sampler":66,"target":{"node":43,"path":"translation"}},{"sampler":67,"target":{"node":43,"path":"rotation"}},{"sampler":68,"target":{"node":42,"path":"translation"}},{"sampler":69,"target":{"node":42,"path":"rotation"}},{"sampler":70,"target":{"node":52,"path":"translation"}},{"sampler":71,"target":{"node":52,"path":"rotation"}},{"sampler":72,"target":{"node":51,"path":"translation"}},{"sampler":73,"target":{"node":51,"path":"rotation"}},{"sampler":74,"target":{"node":54,"path":"translation"}},{"sampler":75,"target":{"node":54,"path":"rotation"}},{"sampler":76,"target":{"node":53,"path":"translation"}},{"sampler":77,"target":{"node":53,"path":"rotation"}},{"sampler":78,"target":{"node":56,"path":"translation"}},{"sampler":79,"target":{"node":56,"path":"rotation"}},{"sampler":80,"target":{"node":57,"path":"translation"}},{"sampler":81,"target":{"node":57,"path":"rotation"}},{"sampler":82,"target":{"node":58,"path":"translation"}},{"sampler":83,"target":{"node":58,"path":"rotation"}}],"name":"Run_Shoot","samplers":[{"input":65,"interpolation":"LINEAR","output":67},{"input":65,"interpolation":"LINEAR","output":68},{"input":65,"interpolation":"LINEAR","output":69},{"input":65,"interpolation":"LINEAR","output":70},{"input":66,"interpolation":"LINEAR","output":71},{"input":66,"interpolation":"LINEAR","output":72},{"input":66,"interpolation":"LINEAR","output":73},{"input":65,"interpolation":"LINEAR","output":74},{"input":66,"interpolation":"LINEAR","output":75},{"input":65,"interpolation":"LINEAR","output":76},{"input":66,"interpolation":"LINEAR","output":77},{"input":66,"interpolation":"LINEAR","output":78},{"input":66,"interpolation":"LINEAR","output":79},{"input":65,"interpolation":"LINEAR","output":80},{"input":66,"interpolation":"LINEAR","output":81},{"input":66,"interpolation":"LINEAR","output":82},{"input":66,"interpolation":"LINEAR","output":83},{"input":65,"interpolation":"LINEAR","output":84},{"input":66,"interpolation":"LINEAR","output":85},{"input":65,"interpolation":"LINEAR","output":86},{"input":66,"interpolation":"LINEAR","output":87},{"input":66,"interpolation":"LINEAR","output":88},{"input":66,"interpolation":"LINEAR","output":89},{"input":66,"interpolation":"LINEAR","output":90},{"input":66,"interpolation":"LINEAR","output":91},{"input":66,"interpolation":"LINEAR","output":92},{"input":66,"interpolation":"LINEAR","output":93},{"input":66,"interpolation":"LINEAR","output":94},{"input":66,"interpolation":"LINEAR","output":95},{"input":66,"interpolation":"LINEAR","output":96},{"input":66,"interpolation":"LINEAR","output":97},{"input":66,"interpolation":"LINEAR","output":98},{"input":66,"interpolation":"LINEAR","output":99},{"input":66,"interpolation":"LINEAR","output":100},{"input":66,"interpolation":"LINEAR","output":101},{"input":66,"interpolation":"LINEAR","output":102},{"input":66,"interpolation":"LINEAR","output":103},{"input":66,"interpolation":"LINEAR","output":104},{"input":66,"interpolation":"LINEAR","output":105},{"input":66,"interpolation":"LINEAR","output":106},{"input":66,"interpolation":"LINEAR","output":107},{"input":66,"interpolation":"LINEAR","output":108},{"input":66,"interpolation":"LINEAR","output":109},{"input":66,"interpolation":"LINEAR","output":110},{"input":66,"interpolation":"LINEAR","output":111},{"input":65,"interpolation":"LINEAR","output":112},{"input":66,"interpolation":"LINEAR","output":113},{"input":65,"interpolation":"LINEAR","output":114},{"input":66,"interpolation":"LINEAR","output":115},{"input":66,"interpolation":"LINEAR","output":116},{"input":66,"interpolation":"LINEAR","output":117},{"input":66,"interpolation":"LINEAR","output":118},{"input":66,"interpolation":"LINEAR","output":119},{"input":66,"interpolation":"LINEAR","output":120},{"input":66,"interpolation":"LINEAR","output":121},{"input":66,"interpolation":"LINEAR","output":122},{"input":66,"interpolation":"LINEAR","output":123},{"input":66,"interpolation":"LINEAR","output":124},{"input":66,"interpolation":"LINEAR","output":125},{"input":66,"interpolation":"LINEAR","output":126},{"input":66,"interpolation":"LINEAR","output":127},{"input":66,"interpolation":"LINEAR","output":128},{"input":66,"interpolation":"LINEAR","output":129},{"input":66,"interpolation":"LINEAR","output":130},{"input":66,"interpolation":"LINEAR","output":131},{"input":66,"interpolation":"LINEAR","output":132},{"input":66,"interpolation":"LINEAR","output":133},{"input":66,"interpolation":"LINEAR","output":134},{"input":66,"interpolation":"LINEAR","output":135},{"input":66,"interpolation":"LINEAR","output":136},{"input":66,"interpolation":"LINEAR","output":137},{"input":65,"interpolation":"LINEAR","output":138},{"input":66,"interpolation":"LINEAR","output":139},{"input":65,"interpolation":"LINEAR","output":140},{"input":66,"interpolation":"LINEAR","output":141},{"input":65,"interpolation":"LINEAR","output":142},{"input":66,"interpolation":"LINEAR","output":143},{"input":65,"interpolation":"LINEAR","output":144},{"input":65,"interpolation":"LINEAR","output":145},{"input":65,"interpolation":"LINEAR","output":146},{"input":65,"interpolation":"LINEAR","output":147},{"input":65,"interpolation":"LINEAR","output":148},{"input":65,"interpolation":"LINEAR","output":149},{"input":65,"interpolation":"LINEAR","output":150}]},{"channels":[{"sampler":0,"target":{"node":0,"path":"translation"}},{"sampler":1,"target":{"node":0,"path":"rotation"}},{"sampler":2,"target":{"node":55,"path":"translation"}},{"sampler":3,"target":{"node":55,"path":"rotation"}},{"sampler":4,"target":{"node":50,"path":"translation"}},{"sampler":5,"target":{"node":50,"path":"rotation"}},{"sampler":6,"target":{"node":49,"path":"translation"}},{"sampler":7,"target":{"node":49,"path":"rotation"}},{"sampler":8,"target":{"node":48,"path":"translation"}},{"sampler":9,"target":{"node":48,"path":"rotation"}},{"sampler":10,"target":{"node":3,"path":"translation"}},{"sampler":11,"target":{"node":3,"path":"rotation"}},{"sampler":12,"target":{"node":2,"path":"translation"}},{"sampler":13,"target":{"node":2,"path":"rotation"}},{"sampler":14,"target":{"node":18,"path":"translation"}},{"sampler":15,"target":{"node":18,"path":"rotation"}},{"sampler":16,"target":{"node":17,"path":"translation"}},{"sampler":17,"target":{"node":17,"path":"rotation"}},{"sampler":18,"target":{"node":15,"path":"translation"}},{"sampler":19,"target":{"node":15,"path":"rotation"}},{"sampler":20,"target":{"node":6,"path":"translation"}},{"sampler":21,"target":{"node":6,"path":"rotation"}},{"sampler":22,"target":{"node":5,"path":"translation"}},{"sampler":23,"target":{"node":5,"path":"rotation"}},{"sampler":24,"target":{"node":4,"path":"translation"}},{"sampler":25,"target":{"node":4,"path":"rotation"}},{"sampler":26,"target":{"node":9,"path":"translation"}},{"sampler":27,"target":{"node":9,"path":"rotation"}},{"sampler":28,"target":{"node":8,"path":"translation"}},{"sampler":29,"target":{"node":8,"path":"rotation"}},{"sampler":30,"target":{"node":7,"path":"translation"}},{"sampler":31,"target":{"node":7,"path":"rotation"}},{"sampler":32,"target":{"node":12,"path":"translation"}},{"sampler":33,"target":{"node":12,"path":"rotation"}},{"sampler":34,"target":{"node":11,"path":"translation"}},{"sampler":35,"target":{"node":11,"path":"rotation"}},{"sampler":36,"target":{"node":10,"path":"translation"}},{"sampler":37,"target":{"node":10,"path":"rotation"}},{"sampler":38,"target":{"node":14,"path":"translation"}},{"sampler":39,"target":{"node":14,"path":"rotation"}},{"sampler":40,"target":{"node":13,"path":"translation"}},{"sampler":41,"target":{"node":13,"path":"rotation"}},{"sampler":42,"target":{"node":47,"path":"translation"}},{"sampler":43,"target":{"node":47,"path":"rotation"}},{"sampler":44,"target":{"node":46,"path":"translation"}},{"sampler":45,"target":{"node":46,"path":"rotation"}},{"sampler":46,"target":{"node":44,"path":"translation"}},{"sampler":47,"target":{"node":44,"path":"rotation"}},{"sampler":48,"target":{"node":21,"path":"translation"}},{"sampler":49,"target":{"node":21,"path":"rotation"}},{"sampler":50,"target":{"node":20,"path":"translation"}},{"sampler":51,"target":{"node":20,"path":"rotation"}},{"sampler":52,"target":{"node":19,"path":"translation"}},{"sampler":53,"target":{"node":19,"path":"rotation"}},{"sampler":54,"target":{"node":24,"path":"translation"}},{"sampler":55,"target":{"node":24,"path":"rotation"}},{"sampler":56,"target":{"node":23,"path":"translation"}},{"sampler":57,"target":{"node":23,"path":"rotation"}},{"sampler":58,"target":{"node":22,"path":"translation"}},{"sampler":59,"target":{"node":22,"path":"rotation"}},{"sampler":60,"target":{"node":41,"path":"translation"}},{"sampler":61,"target":{"node":41,"path":"rotation"}},{"sampler":62,"target":{"node":26,"path":"translation"}},{"sampler":63,"target":{"node":26,"path":"rotation"}},{"sampler":64,"target":{"node":25,"path":"translation"}},{"sampler":65,"target":{"node":25,"path":"rotation"}},{"sampler":66,"target":{"node":43,"path":"translation"}},{"sampler":67,"target":{"node":43,"path":"rotation"}},{"sampler":68,"target":{"node":42,"path":"translation"}},{"sampler":69,"target":{"node":42,"path":"rotation"}},{"sampler":70,"target":{"node":52,"path":"translation"}},{"sampler":71,"target":{"node":52,"path":"rotation"}},{"sampler":72,"target":{"node":51,"path":"translation"}},{"sampler":73,"target":{"node":51,"path":"rotation"}},{"sampler":74,"target":{"node":54,"path":"translation"}},{"sampler":75,"target":{"node":54,"path":"rotation"}},{"sampler":76,"target":{"node":53,"path":"translation"}},{"sampler":77,"target":{"node":53,"path":"rotation"}},{"sampler":78,"target":{"node":56,"path":"translation"}},{"sampler":79,"target":{"node":56,"path":"rotation"}},{"sampler":80,"target":{"node":57,"path":"translation"}},{"sampler":81,"target":{"node":57,"path":"rotation"}},{"sampler":82,"target":{"node":58,"path":"translation"}},{"sampler":83,"target":{"node":58,"path":"rotation"}}],"name":"Yes","samplers":[{"input":63,"interpolation":"LINEAR","output":151},{"input":63,"interpolation":"LINEAR","output":152},{"input":64,"interpolation":"LINEAR","output":153},{"input":63,"interpolation":"LINEAR","output":154},{"input":63,"interpolation":"LINEAR","output":155},{"input":63,"interpolation":"LINEAR","output":156},{"input":63,"interpolation":"LINEAR","output":157},{"input":64,"interpolation":"LINEAR","output":158},{"input":63,"interpolation":"LINEAR","output":159},{"input":63,"interpolation":"LINEAR","output":160},{"input":63,"interpolation":"LINEAR","output":161},{"input":63,"interpolation":"LINEAR","output":162},{"input":63,"interpolation":"LINEAR","output":163},{"input":64,"interpolation":"LINEAR","output":164},{"input":63,"interpolation":"LINEAR","output":165},{"input":63,"interpolation":"LINEAR","output":166},{"input":63,"interpolation":"LINEAR","output":167},{"input":63,"interpolation":"LINEAR","output":168},{"input":63,"interpolation":"LINEAR","output":169},{"input":64,"interpolation":"LINEAR","output":170},{"input":63,"interpolation":"LINEAR","output":171},{"input":63,"interpolation":"LINEAR","output":172},{"input":63,"interpolation":"LINEAR","output":173},{"input":63,"interpolation":"LINEAR","output":174},{"input":63,"interpolation":"LINEAR","output":175},{"input":63,"interpolation":"LINEAR","output":176},{"input":63,"interpolation":"LINEAR","output":177},{"input":63,"interpolation":"LINEAR","output":178},{"input":63,"interpolation":"LINEAR","output":179},{"input":63,"interpolation":"LINEAR","output":180},{"input":63,"interpolation":"LINEAR","output":181},{"input":63,"interpolation":"LINEAR","output":182},{"input":63,"interpolation":"LINEAR","output":183},{"input":63,"interpolation":"LINEAR","output":184},{"input":63,"interpolation":"LINEAR","output":185},{"input":63,"interpolation":"LINEAR","output":186},{"input":63,"interpolation":"LINEAR","output":187},{"input":63,"interpolation":"LINEAR","output":188},{"input":63,"interpolation":"LINEAR","output":189},{"input":63,"interpolation":"LINEAR","output":190},{"input":63,"interpolation":"LINEAR","output":191},{"input":63,"interpolation":"LINEAR","output":192},{"input":63,"interpolation":"LINEAR","output":193},{"input":63,"interpolation":"LINEAR","output":194},{"input":63,"interpolation":"LINEAR","output":195},{"input":63,"interpolation":"LINEAR","output":196},{"input":63,"interpolation":"LINEAR","output":197},{"input":64,"interpolation":"LINEAR","output":198},{"input":63,"interpolation":"LINEAR","output":199},{"input":63,"interpolation":"LINEAR","output":200},{"input":63,"interpolation":"LINEAR","output":201},{"input":63,"interpolation":"LINEAR","output":202},{"input":63,"interpolation":"LINEAR","output":203},{"input":63,"interpolation":"LINEAR","output":204},{"input":63,"interpolation":"LINEAR","output":205},{"input":63,"interpolation":"LINEAR","output":206},{"input":63,"interpolation":"LINEAR","output":207},{"input":63,"interpolation":"LINEAR","output":208},{"input":63,"interpolation":"LINEAR","output":209},{"input":63,"interpolation":"LINEAR","output":210},{"input":63,"interpolation":"LINEAR","output":211},{"input":63,"interpolation":"LINEAR","output":212},{"input":63,"interpolation":"LINEAR","output":213},{"input":63,"interpolation":"LINEAR","output":214},{"input":63,"interpolation":"LINEAR","output":215},{"input":63,"interpolation":"LINEAR","output":216},{"input":63,"interpolation":"LINEAR","output":217},{"input":63,"interpolation":"LINEAR","output":218},{"input":63,"interpolation":"LINEAR","output":219},{"input":63,"interpolation":"LINEAR","output":220},{"input":63,"interpolation":"LINEAR","output":221},{"input":64,"interpolation":"LINEAR","output":222},{"input":63,"interpolation":"LINEAR","output":223},{"input":64,"interpolation":"LINEAR","output":224},{"input":63,"interpolation":"LINEAR","output":225},{"input":64,"interpolation":"LINEAR","output":226},{"input":63,"interpolation":"LINEAR","output":227},{"input":64,"interpolation":"LINEAR","output":228},{"input":63,"interpolation":"LINEAR","output":229},{"input":63,"interpolation":"LINEAR","output":230},{"input":63,"interpolation":"LINEAR","output":231},{"input":63,"interpolation":"LINEAR","output":232},{"input":63,"interpolation":"LINEAR","output":233},{"input":63,"interpolation":"LINEAR","output":234}]}],"materials":[{"doubleSided":true,"name":"Skin","pbrMetallicRoughness":{"baseColorFactor":[0.4769843518733978,0.29047921299934387,0.10014239698648453,1],"metallicFactor":0,"roughnessFactor":0.5}},{"doubleSided":true,"name":"DarkGrey","pbrMetallicRoughness":{"baseColorFactor":[0.0666259378194809,0.0666259378194809,0.0666259378194809,1],"metallicFactor":0,"roughnessFactor":0.5}},{"doubleSided":true,"name":"Pants","pbrMetallicRoughness":{"baseColorFactor":[0.39310845732688904,0.27698808908462524,0.04116641730070114,1],"metallicFactor":0,"roughnessFactor":0.5}},{"doubleSided":true,"name":"Character_Main","pbrMetallicRoughness":{"baseColorFactor":[0.13286834955215454,0.19120171666145325,0.048171836882829666,1],"metallicFactor":0,"roughnessFactor":0.5}},{"doubleSided":true,"name":"Black","pbrMetallicRoughness":{"baseColorFactor":[0.02364896982908249,0.02364896982908249,0.02364896982908249,1],"metallicFactor":0,"roughnessFactor":0.5}},{"doubleSided":true,"name":"Grey","pbrMetallicRoughness":{"baseColorFactor":[0.2746773064136505,0.28744083642959595,0.35153263807296753,1],"metallicFactor":0,"roughnessFactor":0.5}},{"doubleSided":true,"name":"Grey2","pbrMetallicRoughness":{"baseColorFactor":[0.14239658415317535,0.14239658415317535,0.14239658415317535,1],"metallicFactor":0,"roughnessFactor":0.5}},{"doubleSided":true,"name":"Wood","pbrMetallicRoughness":{"baseColorFactor":[0.3757452964782715,0.20292167365550995,0.0587104856967926,1],"metallicFactor":0,"roughnessFactor":0.5}},{"doubleSided":true,"name":"LightGrey","pbrMetallicRoughness":{"baseColorFactor":[0.37574493885040283,0.37574493885040283,0.37574493885040283,1],"metallicFactor":0,"roughnessFactor":0.5}},{"doubleSided":true,"name":"DarkWood","pbrMetallicRoughness":{"baseColorFactor":[0.14238348603248596,0.08724373579025269,0.044256653636693954,1],"metallicFactor":0,"roughnessFactor":0.5}},{"doubleSided":true,"name":"Red","pbrMetallicRoughness":{"baseColorFactor":[0.3263714909553528,0.047813333570957184,0.044884875416755676,1],"metallicFactor":0,"roughnessFactor":0.5}}],"meshes":[{"name":"Cube.004","primitives":[{"attributes":{"POSITION":0,"NORMAL":1,"TEXCOORD_0":2,"JOINTS_0":3,"WEIGHTS_0":4},"indices":5,"material":0},{"attributes":{"POSITION":6,"NORMAL":7,"TEXCOORD_0":8,"JOINTS_0":9,"WEIGHTS_0":10},"indices":11,"material":1},{"attributes":{"POSITION":12,"NORMAL":13,"TEXCOORD_0":14,"JOINTS_0":15,"WEIGHTS_0":16},"indices":17,"material":2},{"attributes":{"POSITION":18,"NORMAL":19,"TEXCOORD_0":20,"JOINTS_0":21,"WEIGHTS_0":22},"indices":23,"material":3},{"attributes":{"POSITION":24,"NORMAL":25,"TEXCOORD_0":26,"JOINTS_0":27,"WEIGHTS_0":28},"indices":29,"material":4}]},{"name":"Cube.003","primitives":[{"attributes":{"POSITION":31,"NORMAL":32,"TEXCOORD_0":33},"indices":34,"material":5},{"attributes":{"POSITION":35,"NORMAL":36,"TEXCOORD_0":37},"indices":38,"material":3},{"attributes":{"POSITION":39,"NORMAL":40,"TEXCOORD_0":41},"indices":42,"material":4}]},{"name":"Cube.005","primitives":[{"attributes":{"POSITION":43,"NORMAL":44,"TEXCOORD_0":45},"indices":46,"material":5}]},{"name":"Cube.276","primitives":[{"attributes":{"POSITION":47,"NORMAL":48},"indices":49,"material":5},{"attributes":{"POSITION":50,"NORMAL":51},"indices":52,"material":6},{"attributes":{"POSITION":53,"NORMAL":54},"indices":55,"material":7},{"attributes":{"POSITION":56,"NORMAL":57},"indices":58,"material":1}]},{"name":"Cube.001","primitives":[{"attributes":{"POSITION":59,"NORMAL":60,"TEXCOORD_0":61},"indices":62,"material":5}]}],"skins":[{"inverseBindMatrices":30,"joints":[59,0,55,50,49,48,3,2,18,17,15,6,5,4,9,8,7,12,11,10,14,13,47,46,44,21,20,19,24,23,22,41,26,25,43,42,52,51,54,53,56,57,58],"name":"CharacterArmature"}],"accessors":[{"bufferView":0,"componentType":5126,"count":604,"max":[1.3625940084457397,2.0998079776763916,0.3725171387195587],"min":[-1.3625940084457397,1.266825556755066,-0.1586650162935257],"type":"VEC3"},{"bufferView":1,"componentType":5126,"count":604,"type":"VEC3"},{"bufferView":2,"componentType":5126,"count":604,"type":"VEC2"},{"bufferView":3,"componentType":5121,"count":604,"type":"VEC4"},{"bufferView":4,"componentType":5126,"count":604,"type":"VEC4"},{"bufferView":5,"componentType":5123,"count":3264,"type":"SCALAR"},{"bufferView":6,"componentType":5126,"count":574,"max":[0.2974524199962616,1.340869426727295,0.23314762115478516],"min":[-0.2974524199962616,0.147935688495636,-0.20715102553367615],"type":"VEC3"},{"bufferView":7,"componentType":5126,"count":574,"type":"VEC3"},{"bufferView":8,"componentType":5126,"count":574,"type":"VEC2"},{"bufferView":9,"componentType":5121,"count":574,"type":"VEC4"},{"bufferView":10,"componentType":5126,"count":574,"type":"VEC4"},{"bufferView":11,"componentType":5123,"count":1704,"type":"SCALAR"},{"bufferView":12,"componentType":5126,"count":278,"max":[0.3366020619869232,0.9459635019302368,0.1527475118637085],"min":[-0.3366020619869232,0.18886886537075043,-0.19151519238948822],"type":"VEC3"},{"bufferView":13,"componentType":5126,"count":278,"type":"VEC3"},{"bufferView":14,"componentType":5126,"count":278,"type":"VEC2"},{"bufferView":15,"componentType":5121,"count":278,"type":"VEC4"},{"bufferView":16,"componentType":5126,"count":278,"type":"VEC4"},{"bufferView":17,"componentType":5123,"count":1362,"type":"SCALAR"},{"bufferView":18,"componentType":5126,"count":498,"max":[0.36041125655174255,1.6820542812347412,0.26299041509628296],"min":[-0.36041125655174255,0.8749215602874756,-0.3021808862686157],"type":"VEC3"},{"bufferView":19,"componentType":5126,"count":498,"type":"VEC3"},{"bufferView":20,"componentType":5126,"count":498,"type":"VEC2"},{"bufferView":21,"componentType":5121,"count":498,"type":"VEC4"},{"bufferView":22,"componentType":5126,"count":498,"type":"VEC4"},{"bufferView":23,"componentType":5123,"count":2064,"type":"SCALAR"},{"bufferView":24,"componentType":5126,"count":1093,"max":[0.8876866698265076,2.2026989459991455,0.3634108304977417],"min":[-0.8876866698265076,-0.021191079169511795,-0.319035142660141],"type":"VEC3"},{"bufferView":25,"componentType":5126,"count":1093,"type":"VEC3"},{"bufferView":26,"componentType":5126,"count":1093,"type":"VEC2"},{"bufferView":27,"componentType":5121,"count":1093,"type":"VEC4"},{"bufferView":28,"componentType":5126,"count":1093,"type":"VEC4"},{"bufferView":29,"componentType":5123,"count":4770,"type":"SCALAR"},{"bufferView":30,"componentType":5126,"count":43,"type":"MAT4"},{"bufferView":31,"componentType":5126,"count":242,"max":[0.5802702307701111,3.758059501647949,0.7762752771377563],"min":[-0.5802702307701111,3.418621063232422,0.31879016757011414],"type":"VEC3"},{"bufferView":32,"componentType":5126,"count":242,"type":"VEC3"},{"bufferView":33,"componentType":5126,"count":242,"type":"VEC2"},{"bufferView":34,"componentType":5123,"count":792,"type":"SCALAR"},{"bufferView":35,"componentType":5126,"count":456,"max":[0.7004910707473755,3.9075984954833984,0.821424126625061],"min":[-0.7004910707473755,2.890601634979248,-0.6498982906341553],"type":"VEC3"},{"bufferView":36,"componentType":5126,"count":456,"type":"VEC3"},{"bufferView":37,"componentType":5126,"count":456,"type":"VEC2"},{"bufferView":38,"componentType":5123,"count":1896,"type":"SCALAR"},{"bufferView":39,"componentType":5126,"count":370,"max":[0.6659164428710938,3.6289305686950684,0.6628807783126831],"min":[-0.6659164428710938,2.9793334007263184,-0.652371346950531],"type":"VEC3"},{"bufferView":40,"componentType":5126,"count":370,"type":"VEC3"},{"bufferView":41,"componentType":5126,"count":370,"type":"VEC2"},{"bufferView":42,"componentType":5123,"count":1368,"type":"SCALAR"},{"bufferView":43,"componentType":5126,"count":52,"max":[0.28542107343673706,0.18113255500793457,0.28288957476615906],"min":[-0.2854210436344147,-0.18113279342651367,-0.28288957476615906],"type":"VEC3"},{"bufferView":44,"componentType":5126,"count":52,"type":"VEC3"},{"bufferView":45,"componentType":5126,"count":52,"type":"VEC2"},{"bufferView":46,"componentType":5123,"count":132,"type":"SCALAR"},{"bufferView":47,"componentType":5126,"count":895,"max":[1.317396879196167,0.7907012701034546,0.14434021711349487],"min":[-0.2796272039413452,-0.6982919573783875,-0.14433634281158447],"type":"VEC3"},{"bufferView":48,"componentType":5126,"count":895,"type":"VEC3"},{"bufferView":49,"componentType":5123,"count":1344,"type":"SCALAR"},{"bufferView":50,"componentType":5126,"count":798,"max":[1.5441709756851196,0.8124975562095642,0.1823117583990097],"min":[-0.21004629135131836,-0.7610447406768799,-0.1823078840970993],"type":"VEC3"},{"bufferView":51,"componentType":5126,"count":798,"type":"VEC3"},{"bufferView":52,"componentType":5123,"count":1212,"type":"SCALAR"},{"bufferView":53,"componentType":5126,"count":96,"max":[-0.06505614519119263,0.6811116933822632,0.0730980783700943],"min":[-0.9440502524375916,0.14835450053215027,-0.07290827482938766],"type":"VEC3"},{"bufferView":54,"componentType":5126,"count":96,"type":"VEC3"},{"bufferView":55,"componentType":5123,"count":132,"type":"SCALAR"},{"bufferView":56,"componentType":5126,"count":180,"max":[2.459017038345337,0.9848126173019409,0.12370618432760239],"min":[1.1728274822235107,0.4819578528404236,-0.12370229512453079],"type":"VEC3"},{"bufferView":57,"componentType":5126,"count":180,"type":"VEC3"},{"bufferView":58,"componentType":5123,"count":696,"type":"SCALAR"},{"bufferView":59,"componentType":5126,"count":52,"max":[0.2854210436344147,0.18113255500793457,0.28288957476615906],"min":[-0.28542107343673706,-0.18113279342651367,-0.28288957476615906],"type":"VEC3"},{"bufferView":60,"componentType":5126,"count":52,"type":"VEC3"},{"bufferView":61,"componentType":5126,"count":52,"type":"VEC2"},{"bufferView":62,"componentType":5123,"count":132,"type":"SCALAR"},{"bufferView":63,"componentType":5126,"count":2,"max":[1.6666666666666667],"min":[0],"type":"SCALAR"},{"bufferView":64,"componentType":5126,"count":51,"max":[1.6666666666666667],"min":[0],"type":"SCALAR"},{"bufferView":65,"componentType":5126,"count":23,"max":[0.7333333333333333],"min":[0],"type":"SCALAR"},{"bufferView":66,"componentType":5126,"count":2,"max":[0.7333333333333333],"min":[0],"type":"SCALAR"},{"bufferView":67,"componentType":5126,"count":23,"type":"VEC3"},{"bufferView":68,"componentType":5126,"count":23,"type":"VEC4"},{"bufferView":69,"componentType":5126,"count":23,"type":"VEC3"},{"bufferView":70,"componentType":5126,"count":23,"type":"VEC4"},{"bufferView":71,"componentType":5126,"count":2,"type":"VEC3"},{"bufferView":72,"componentType":5126,"count":2,"type":"VEC4"},{"bufferView":73,"componentType":5126,"count":2,"type":"VEC3"},{"bufferView":74,"componentType":5126,"count":23,"type":"VEC4"},{"bufferView":75,"componentType":5126,"count":2,"type":"VEC3"},{"bufferView":76,"componentType":5126,"count":23,"type":"VEC4"},{"bufferView":77,"componentType":5126,"count":2,"type":"VEC3"},{"bufferView":78,"componentType":5126,"count":2,"type":"VEC4"},{"bufferView":79,"componentType":5126,"count":2,"type":"VEC3"},{"bufferView":80,"componentType":5126,"count":23,"type":"VEC4"},{"bufferView":81,"componentType":5126,"count":2,"type":"VEC3"},{"bufferView":82,"componentType":5126,"count":2,"type":"VEC4"},{"bufferView":83,"componentType":5126,"count":2,"type":"VEC3"},{"bufferView":84,"componentType":5126,"count":23,"type":"VEC4"},{"bufferView":85,"componentType":5126,"count":2,"type":"VEC3"},{"bufferView":86,"componentType":5126,"count":23,"type":"VEC4"},{"bufferView":87,"componentType":5126,"count":2,"type":"VEC3"},{"bufferView":88,"componentType":5126,"count":2,"type":"VEC4"},{"bufferView":89,"componentType":5126,"count":2,"type":"VEC3"},{"bufferView":90,"componentType":5126,"count":2,"type":"VEC4"},{"bufferView":91,"componentType":5126,"count":2,"type":"VEC3"},{"bufferView":92,"componentType":5126,"count":2,"type":"VEC4"},{"bufferView":93,"componentType":5126,"count":2,"type":"VEC3"},{"bufferView":94,"componentType":5126,"count":2,"type":"VEC4"},{"bufferView":95,"componentType":5126,"count":2,"type":"VEC3"},{"bufferView":96,"componentType":5126,"count":2,"type":"VEC4"},{"bufferView":97,"componentType":5126,"count":2,"type":"VEC3"},{"bufferView":98,"componentType":5126,"count":2,"type":"VEC4"},{"bufferView":99,"componentType":5126,"count":2,"type":"VEC3"},{"bufferView":100,"componentType":5126,"count":2,"type":"VEC4"},{"bufferView":101,"componentType":5126,"count":2,"type":"VEC3"},{"bufferView":102,"componentType":5126,"count":2,"type":"VEC4"},{"bufferView":103,"componentType":5126,"count":2,"type":"VEC3"},{"bufferView":104,"componentType":5126,"count":2,"type":"VEC4"},{"bufferView":105,"componentType":5126,"count":2,"type":"VEC3"},{"bufferView":106,"componentType":5126,"count":2,"type":"VEC4"},{"bufferView":107,"componentType":5126,"count":2,"type":"VEC3"},{"bufferView":108,"componentType":5126,"count":2,"type":"VEC4"},{"bufferView":109,"componentType":5126,"count":2,"type":"VEC3"},{"bufferView":110,"componentType":5126,"count":2,"type":"VEC4"},{"bufferView":111,"componentType":5126,"count":2,"type":"VEC3"},{"bufferView":112,"componentType":5126,"count":23,"type":"VEC4"},{"bufferView":113,"componentType":5126,"count":2,"type":"VEC3"},{"bufferView":114,"componentType":5126,"count":23,"type":"VEC4"},{"bufferView":115,"componentType":5126,"count":2,"type":"VEC3"},{"bufferView":116,"componentType":5126,"count":2,"type":"VEC4"},{"bufferView":117,"componentType":5126,"count":2,"type":"VEC3"},{"bufferView":118,"componentType":5126,"count":2,"type":"VEC4"},{"bufferView":119,"componentType":5126,"count":2,"type":"VEC3"},{"bufferView":120,"componentType":5126,"count":2,"type":"VEC4"},{"bufferView":121,"componentType":5126,"count":2,"type":"VEC3"},{"bufferView":122,"componentType":5126,"count":2,"type":"VEC4"},{"bufferView":123,"componentType":5126,"count":2,"type":"VEC3"},{"bufferView":124,"componentType":5126,"count":2,"type":"VEC4"},{"bufferView":125,"componentType":5126,"count":2,"type":"VEC3"},{"bufferView":126,"componentType":5126,"count":2,"type":"VEC4"},{"bufferView":127,"componentType":5126,"count":2,"type":"VEC3"},{"bufferView":128,"componentType":5126,"count":2,"type":"VEC4"},{"bufferView":129,"componentType":5126,"count":2,"type":"VEC3"},{"bufferView":130,"componentType":5126,"count":2,"type":"VEC4"},{"bufferView":131,"componentType":5126,"count":2,"type":"VEC3"},{"bufferView":132,"componentType":5126,"count":2,"type":"VEC4"},{"bufferView":133,"componentType":5126,"count":2,"type":"VEC3"},{"bufferView":134,"componentType":5126,"count":2,"type":"VEC4"},{"bufferView":135,"componentType":5126,"count":2,"type":"VEC3"},{"bufferView":136,"componentType":5126,"count":2,"type":"VEC4"},{"bufferView":137,"componentType":5126,"count":2,"type":"VEC3"},{"bufferView":138,"componentType":5126,"count":23,"type":"VEC4"},{"bufferView":139,"componentType":5126,"count":2,"type":"VEC3"},{"bufferView":140,"componentType":5126,"count":23,"type":"VEC4"},{"bufferView":141,"componentType":5126,"count":2,"type":"VEC3"},{"bufferView":142,"componentType":5126,"count":23,"type":"VEC4"},{"bufferView":143,"componentType":5126,"count":2,"type":"VEC3"},{"bufferView":144,"componentType":5126,"count":23,"type":"VEC4"},{"bufferView":145,"componentType":5126,"count":23,"type":"VEC3"},{"bufferView":146,"componentType":5126,"count":23,"type":"VEC4"},{"bufferView":147,"componentType":5126,"count":23,"type":"VEC3"},{"bufferView":148,"componentType":5126,"count":23,"type":"VEC4"},{"bufferView":149,"componentType":5126,"count":23,"type":"VEC3"},{"bufferView":150,"componentType":5126,"count":23,"type":"VEC4"},{"bufferView":151,"componentType":5126,"count":2,"type":"VEC3"},{"bufferView":152,"componentType":5126,"count":2,"type":"VEC4"},{"bufferView":153,"componentType":5126,"count":51,"type":"VEC3"},{"bufferView":154,"componentType":5126,"count":2,"type":"VEC4"},{"bufferView":155,"componentType":5126,"count":2,"type":"VEC3"},{"bufferView":156,"componentType":5126,"count":2,"type":"VEC4"},{"bufferView":157,"componentType":5126,"count":2,"type":"VEC3"},{"bufferView":158,"componentType":5126,"count":51,"type":"VEC4"},{"bufferView":159,"componentType":5126,"count":2,"type":"VEC3"},{"bufferView":160,"componentType":5126,"count":2,"type":"VEC4"},{"bufferView":161,"componentType":5126,"count":2,"type":"VEC3"},{"bufferView":162,"componentType":5126,"count":2,"type":"VEC4"},{"bufferView":163,"componentType":5126,"count":2,"type":"VEC3"},{"bufferView":164,"componentType":5126,"count":51,"type":"VEC4"},{"bufferView":165,"componentType":5126,"count":2,"type":"VEC3"},{"bufferView":166,"componentType":5126,"count":2,"type":"VEC4"},{"bufferView":167,"componentType":5126,"count":2,"type":"VEC3"},{"bufferView":168,"componentType":5126,"count":2,"type":"VEC4"},{"bufferView":169,"componentType":5126,"count":2,"type":"VEC3"},{"bufferView":170,"componentType":5126,"count":51,"type":"VEC4"},{"bufferView":171,"componentType":5126,"count":2,"type":"VEC3"},{"bufferView":172,"componentType":5126,"count":2,"type":"VEC4"},{"bufferView":173,"componentType":5126,"count":2,"type":"VEC3"},{"bufferView":174,"componentType":5126,"count":2,"type":"VEC4"},{"bufferView":175,"componentType":5126,"count":2,"type":"VEC3"},{"bufferView":176,"componentType":5126,"count":2,"type":"VEC4"},{"bufferView":177,"componentType":5126,"count":2,"type":"VEC3"},{"bufferView":178,"componentType":5126,"count":2,"type":"VEC4"},{"bufferView":179,"componentType":5126,"count":2,"type":"VEC3"},{"bufferView":180,"componentType":5126,"count":2,"type":"VEC4"},{"bufferView":181,"componentType":5126,"count":2,"type":"VEC3"},{"bufferView":182,"componentType":5126,"count":2,"type":"VEC4"},{"bufferView":183,"componentType":5126,"count":2,"type":"VEC3"},{"bufferView":184,"componentType":5126,"count":2,"type":"VEC4"},{"bufferView":185,"componentType":5126,"count":2,"type":"VEC3"},{"bufferView":186,"componentType":5126,"count":2,"type":"VEC4"},{"bufferView":187,"componentType":5126,"count":2,"type":"VEC3"},{"bufferView":188,"componentType":5126,"count":2,"type":"VEC4"},{"bufferView":189,"componentType":5126,"count":2,"type":"VEC3"},{"bufferView":190,"componentType":5126,"count":2,"type":"VEC4"},{"bufferView":191,"componentType":5126,"count":2,"type":"VEC3"},{"bufferView":192,"componentType":5126,"count":2,"type":"VEC4"},{"bufferView":193,"componentType":5126,"count":2,"type":"VEC3"},{"bufferView":194,"componentType":5126,"count":2,"type":"VEC4"},{"bufferView":195,"componentType":5126,"count":2,"type":"VEC3"},{"bufferView":196,"componentType":5126,"count":2,"type":"VEC4"},{"bufferView":197,"componentType":5126,"count":2,"type":"VEC3"},{"bufferView":198,"componentType":5126,"count":51,"type":"VEC4"},{"bufferView":199,"componentType":5126,"count":2,"type":"VEC3"},{"bufferView":200,"componentType":5126,"count":2,"type":"VEC4"},{"bufferView":201,"componentType":5126,"count":2,"type":"VEC3"},{"bufferView":202,"componentType":5126,"count":2,"type":"VEC4"},{"bufferView":203,"componentType":5126,"count":2,"type":"VEC3"},{"bufferView":204,"componentType":5126,"count":2,"type":"VEC4"},{"bufferView":205,"componentType":5126,"count":2,"type":"VEC3"},{"bufferView":206,"componentType":5126,"count":2,"type":"VEC4"},{"bufferView":207,"componentType":5126,"count":2,"type":"VEC3"},{"bufferView":208,"componentType":5126,"count":2,"type":"VEC4"},{"bufferView":209,"componentType":5126,"count":2,"type":"VEC3"},{"bufferView":210,"componentType":5126,"count":2,"type":"VEC4"},{"bufferView":211,"componentType":5126,"count":2,"type":"VEC3"},{"bufferView":212,"componentType":5126,"count":2,"type":"VEC4"},{"bufferView":213,"componentType":5126,"count":2,"type":"VEC3"},{"bufferView":214,"componentType":5126,"count":2,"type":"VEC4"},{"bufferView":215,"componentType":5126,"count":2,"type":"VEC3"},{"bufferView":216,"componentType":5126,"count":2,"type":"VEC4"},{"bufferView":217,"componentType":5126,"count":2,"type":"VEC3"},{"bufferView":218,"componentType":5126,"count":2,"type":"VEC4"},{"bufferView":219,"componentType":5126,"count":2,"type":"VEC3"},{"bufferView":220,"componentType":5126,"count":2,"type":"VEC4"},{"bufferView":221,"componentType":5126,"count":2,"type":"VEC3"},{"bufferView":222,"componentType":5126,"count":51,"type":"VEC4"},{"bufferView":223,"componentType":5126,"count":2,"type":"VEC3"},{"bufferView":224,"componentType":5126,"count":51,"type":"VEC4"},{"bufferView":225,"componentType":5126,"count":2,"type":"VEC3"},{"bufferView":226,"componentType":5126,"count":51,"type":"VEC4"},{"bufferView":227,"componentType":5126,"count":2,"type":"VEC3"},{"bufferView":228,"componentType":5126,"count":51,"type":"VEC4"},{"bufferView":229,"componentType":5126,"count":2,"type":"VEC3"},{"bufferView":230,"componentType":5126,"count":2,"type":"VEC4"},{"bufferView":231,"componentType":5126,"count":2,"type":"VEC3"},{"bufferView":232,"componentType":5126,"count":2,"type":"VEC4"},{"bufferView":233,"componentType":5126,"count":2,"type":"VEC3"},{"bufferView":234,"componentType":5126,"count":2,"type":"VEC4"}],"bufferViews":[{"buffer":0,"byteLength":7248,"byteOffset":0},{"buffer":0,"byteLength":7248,"byteOffset":7248},{"buffer":0,"byteLength":4832,"byteOffset":14496},{"buffer":0,"byteLength":2416,"byteOffset":19328},{"buffer":0,"byteLength":9664,"byteOffset":21744},{"buffer":0,"byteLength":6528,"byteOffset":31408},{"buffer":0,"byteLength":6888,"byteOffset":37936},{"buffer":0,"byteLength":6888,"byteOffset":44824},{"buffer":0,"byteLength":4592,"byteOffset":51712},{"buffer":0,"byteLength":2296,"byteOffset":56304},{"buffer":0,"byteLength":9184,"byteOffset":58600},{"buffer":0,"byteLength":3408,"byteOffset":67784},{"buffer":0,"byteLength":3336,"byteOffset":71192},{"buffer":0,"byteLength":3336,"byteOffset":74528},{"buffer":0,"byteLength":2224,"byteOffset":77864},{"buffer":0,"byteLength":1112,"byteOffset":80088},{"buffer":0,"byteLength":4448,"byteOffset":81200},{"buffer":0,"byteLength":2724,"byteOffset":85648},{"buffer":0,"byteLength":5976,"byteOffset":88372},{"buffer":0,"byteLength":5976,"byteOffset":94348},{"buffer":0,"byteLength":3984,"byteOffset":100324},{"buffer":0,"byteLength":1992,"byteOffset":104308},{"buffer":0,"byteLength":7968,"byteOffset":106300},{"buffer":0,"byteLength":4128,"byteOffset":114268},{"buffer":0,"byteLength":13116,"byteOffset":118396},{"buffer":0,"byteLength":13116,"byteOffset":131512},{"buffer":0,"byteLength":8744,"byteOffset":144628},{"buffer":0,"byteLength":4372,"byteOffset":153372},{"buffer":0,"byteLength":17488,"byteOffset":157744},{"buffer":0,"byteLength":9540,"byteOffset":175232},{"buffer":0,"byteLength":2752,"byteOffset":184772},{"buffer":0,"byteLength":2904,"byteOffset":187524},{"buffer":0,"byteLength":2904,"byteOffset":190428},{"buffer":0,"byteLength":1936,"byteOffset":193332},{"buffer":0,"byteLength":1584,"byteOffset":195268},{"buffer":0,"byteLength":5472,"byteOffset":196852},{"buffer":0,"byteLength":5472,"byteOffset":202324},{"buffer":0,"byteLength":3648,"byteOffset":207796},{"buffer":0,"byteLength":3792,"byteOffset":211444},{"buffer":0,"byteLength":4440,"byteOffset":215236},{"buffer":0,"byteLength":4440,"byteOffset":219676},{"buffer":0,"byteLength":2960,"byteOffset":224116},{"buffer":0,"byteLength":2736,"byteOffset":227076},{"buffer":0,"byteLength":624,"byteOffset":229812},{"buffer":0,"byteLength":624,"byteOffset":230436},{"buffer":0,"byteLength":416,"byteOffset":231060},{"buffer":0,"byteLength":264,"byteOffset":231476},{"buffer":0,"byteLength":10740,"byteOffset":231740},{"buffer":0,"byteLength":10740,"byteOffset":242480},{"buffer":0,"byteLength":2688,"byteOffset":253220},{"buffer":0,"byteLength":9576,"byteOffset":255908},{"buffer":0,"byteLength":9576,"byteOffset":265484},{"buffer":0,"byteLength":2424,"byteOffset":275060},{"buffer":0,"byteLength":1152,"byteOffset":277484},{"buffer":0,"byteLength":1152,"byteOffset":278636},{"buffer":0,"byteLength":264,"byteOffset":279788},{"buffer":0,"byteLength":2160,"byteOffset":280052},{"buffer":0,"byteLength":2160,"byteOffset":282212},{"buffer":0,"byteLength":1392,"byteOffset":284372},{"buffer":0,"byteLength":624,"byteOffset":285764},{"buffer":0,"byteLength":624,"byteOffset":286388},{"buffer":0,"byteLength":416,"byteOffset":287012},{"buffer":0,"byteLength":264,"byteOffset":287428},{"buffer":0,"byteLength":8,"byteOffset":287692},{"buffer":0,"byteLength":204,"byteOffset":287700},{"buffer":0,"byteLength":92,"byteOffset":287904},{"buffer":0,"byteLength":8,"byteOffset":287996},{"buffer":0,"byteLength":276,"byteOffset":288004},{"buffer":0,"byteLength":368,"byteOffset":288280},{"buffer":0,"byteLength":276,"byteOffset":288648},{"buffer":0,"byteLength":368,"byteOffset":288924},{"buffer":0,"byteLength":24,"byteOffset":289292},{"buffer":0,"byteLength":32,"byteOffset":289316},{"buffer":0,"byteLength":24,"byteOffset":289348},{"buffer":0,"byteLength":368,"byteOffset":289372},{"buffer":0,"byteLength":24,"byteOffset":289740},{"buffer":0,"byteLength":368,"byteOffset":289764},{"buffer":0,"byteLength":24,"byteOffset":290132},{"buffer":0,"byteLength":32,"byteOffset":290156},{"buffer":0,"byteLength":24,"byteOffset":290188},{"buffer":0,"byteLength":368,"byteOffset":290212},{"buffer":0,"byteLength":24,"byteOffset":290580},{"buffer":0,"byteLength":32,"byteOffset":290604},{"buffer":0,"byteLength":24,"byteOffset":290636},{"buffer":0,"byteLength":368,"byteOffset":290660},{"buffer":0,"byteLength":24,"byteOffset":291028},{"buffer":0,"byteLength":368,"byteOffset":291052},{"buffer":0,"byteLength":24,"byteOffset":291420},{"buffer":0,"byteLength":32,"byteOffset":291444},{"buffer":0,"byteLength":24,"byteOffset":291476},{"buffer":0,"byteLength":32,"byteOffset":291500},{"buffer":0,"byteLength":24,"byteOffset":291532},{"buffer":0,"byteLength":32,"byteOffset":291556},{"buffer":0,"byteLength":24,"byteOffset":291588},{"buffer":0,"byteLength":32,"byteOffset":291612},{"buffer":0,"byteLength":24,"byteOffset":291644},{"buffer":0,"byteLength":32,"byteOffset":291668},{"buffer":0,"byteLength":24,"byteOffset":291700},{"buffer":0,"byteLength":32,"byteOffset":291724},{"buffer":0,"byteLength":24,"byteOffset":291756},{"buffer":0,"byteLength":32,"byteOffset":291780},{"buffer":0,"byteLength":24,"byteOffset":291812},{"buffer":0,"byteLength":32,"byteOffset":291836},{"buffer":0,"byteLength":24,"byteOffset":291868},{"buffer":0,"byteLength":32,"byteOffset":291892},{"buffer":0,"byteLength":24,"byteOffset":291924},{"buffer":0,"byteLength":32,"byteOffset":291948},{"buffer":0,"byteLength":24,"byteOffset":291980},{"buffer":0,"byteLength":32,"byteOffset":292004},{"buffer":0,"byteLength":24,"byteOffset":292036},{"buffer":0,"byteLength":32,"byteOffset":292060},{"buffer":0,"byteLength":24,"byteOffset":292092},{"buffer":0,"byteLength":368,"byteOffset":292116},{"buffer":0,"byteLength":24,"byteOffset":292484},{"buffer":0,"byteLength":368,"byteOffset":292508},{"buffer":0,"byteLength":24,"byteOffset":292876},{"buffer":0,"byteLength":32,"byteOffset":292900},{"buffer":0,"byteLength":24,"byteOffset":292932},{"buffer":0,"byteLength":32,"byteOffset":292956},{"buffer":0,"byteLength":24,"byteOffset":292988},{"buffer":0,"byteLength":32,"byteOffset":293012},{"buffer":0,"byteLength":24,"byteOffset":293044},{"buffer":0,"byteLength":32,"byteOffset":293068},{"buffer":0,"byteLength":24,"byteOffset":293100},{"buffer":0,"byteLength":32,"byteOffset":293124},{"buffer":0,"byteLength":24,"byteOffset":293156},{"buffer":0,"byteLength":32,"byteOffset":293180},{"buffer":0,"byteLength":24,"byteOffset":293212},{"buffer":0,"byteLength":32,"byteOffset":293236},{"buffer":0,"byteLength":24,"byteOffset":293268},{"buffer":0,"byteLength":32,"byteOffset":293292},{"buffer":0,"byteLength":24,"byteOffset":293324},{"buffer":0,"byteLength":32,"byteOffset":293348},{"buffer":0,"byteLength":24,"byteOffset":293380},{"buffer":0,"byteLength":32,"byteOffset":293404},{"buffer":0,"byteLength":24,"byteOffset":293436},{"buffer":0,"byteLength":32,"byteOffset":293460},{"buffer":0,"byteLength":24,"byteOffset":293492},{"buffer":0,"byteLength":368,"byteOffset":293516},{"buffer":0,"byteLength":24,"byteOffset":293884},{"buffer":0,"byteLength":368,"byteOffset":293908},{"buffer":0,"byteLength":24,"byteOffset":294276},{"buffer":0,"byteLength":368,"byteOffset":294300},{"buffer":0,"byteLength":24,"byteOffset":294668},{"buffer":0,"byteLength":368,"byteOffset":294692},{"buffer":0,"byteLength":276,"byteOffset":295060},{"buffer":0,"byteLength":368,"byteOffset":295336},{"buffer":0,"byteLength":276,"byteOffset":295704},{"buffer":0,"byteLength":368,"byteOffset":295980},{"buffer":0,"byteLength":276,"byteOffset":296348},{"buffer":0,"byteLength":368,"byteOffset":296624},{"buffer":0,"byteLength":24,"byteOffset":296992},{"buffer":0,"byteLength":32,"byteOffset":297016},{"buffer":0,"byteLength":612,"byteOffset":297048},{"buffer":0,"byteLength":32,"byteOffset":297660},{"buffer":0,"byteLength":24,"byteOffset":297692},{"buffer":0,"byteLength":32,"byteOffset":297716},{"buffer":0,"byteLength":24,"byteOffset":297748},{"buffer":0,"byteLength":816,"byteOffset":297772},{"buffer":0,"byteLength":24,"byteOffset":298588},{"buffer":0,"byteLength":32,"byteOffset":298612},{"buffer":0,"byteLength":24,"byteOffset":298644},{"buffer":0,"byteLength":32,"byteOffset":298668},{"buffer":0,"byteLength":24,"byteOffset":298700},{"buffer":0,"byteLength":816,"byteOffset":298724},{"buffer":0,"byteLength":24,"byteOffset":299540},{"buffer":0,"byteLength":32,"byteOffset":299564},{"buffer":0,"byteLength":24,"byteOffset":299596},{"buffer":0,"byteLength":32,"byteOffset":299620},{"buffer":0,"byteLength":24,"byteOffset":299652},{"buffer":0,"byteLength":816,"byteOffset":299676},{"buffer":0,"byteLength":24,"byteOffset":300492},{"buffer":0,"byteLength":32,"byteOffset":300516},{"buffer":0,"byteLength":24,"byteOffset":300548},{"buffer":0,"byteLength":32,"byteOffset":300572},{"buffer":0,"byteLength":24,"byteOffset":300604},{"buffer":0,"byteLength":32,"byteOffset":300628},{"buffer":0,"byteLength":24,"byteOffset":300660},{"buffer":0,"byteLength":32,"byteOffset":300684},{"buffer":0,"byteLength":24,"byteOffset":300716},{"buffer":0,"byteLength":32,"byteOffset":300740},{"buffer":0,"byteLength":24,"byteOffset":300772},{"buffer":0,"byteLength":32,"byteOffset":300796},{"buffer":0,"byteLength":24,"byteOffset":300828},{"buffer":0,"byteLength":32,"byteOffset":300852},{"buffer":0,"byteLength":24,"byteOffset":300884},{"buffer":0,"byteLength":32,"byteOffset":300908},{"buffer":0,"byteLength":24,"byteOffset":300940},{"buffer":0,"byteLength":32,"byteOffset":300964},{"buffer":0,"byteLength":24,"byteOffset":300996},{"buffer":0,"byteLength":32,"byteOffset":301020},{"buffer":0,"byteLength":24,"byteOffset":301052},{"buffer":0,"byteLength":32,"byteOffset":301076},{"buffer":0,"byteLength":24,"byteOffset":301108},{"buffer":0,"byteLength":32,"byteOffset":301132},{"buffer":0,"byteLength":24,"byteOffset":301164},{"buffer":0,"byteLength":32,"byteOffset":301188},{"buffer":0,"byteLength":24,"byteOffset":301220},{"buffer":0,"byteLength":816,"byteOffset":301244},{"buffer":0,"byteLength":24,"byteOffset":302060},{"buffer":0,"byteLength":32,"byteOffset":302084},{"buffer":0,"byteLength":24,"byteOffset":302116},{"buffer":0,"byteLength":32,"byteOffset":302140},{"buffer":0,"byteLength":24,"byteOffset":302172},{"buffer":0,"byteLength":32,"byteOffset":302196},{"buffer":0,"byteLength":24,"byteOffset":302228},{"buffer":0,"byteLength":32,"byteOffset":302252},{"buffer":0,"byteLength":24,"byteOffset":302284},{"buffer":0,"byteLength":32,"byteOffset":302308},{"buffer":0,"byteLength":24,"byteOffset":302340},{"buffer":0,"byteLength":32,"byteOffset":302364},{"buffer":0,"byteLength":24,"byteOffset":302396},{"buffer":0,"byteLength":32,"byteOffset":302420},{"buffer":0,"byteLength":24,"byteOffset":302452},{"buffer":0,"byteLength":32,"byteOffset":302476},{"buffer":0,"byteLength":24,"byteOffset":302508},{"buffer":0,"byteLength":32,"byteOffset":302532},{"buffer":0,"byteLength":24,"byteOffset":302564},{"buffer":0,"byteLength":32,"byteOffset":302588},{"buffer":0,"byteLength":24,"byteOffset":302620},{"buffer":0,"byteLength":32,"byteOffset":302644},{"buffer":0,"byteLength":24,"byteOffset":302676},{"buffer":0,"byteLength":816,"byteOffset":302700},{"buffer":0,"byteLength":24,"byteOffset":303516},{"buffer":0,"byteLength":816,"byteOffset":303540},{"buffer":0,"byteLength":24,"byteOffset":304356},{"buffer":0,"byteLength":816,"byteOffset":304380},{"buffer":0,"byteLength":24,"byteOffset":305196},{"buffer":0,"byteLength":816,"byteOffset":305220},{"buffer":0,"byteLength":24,"byteOffset":306036},{"buffer":0,"byteLength":32,"byteOffset":306060},{"buffer":0,"byteLength":24,"byteOffset":306092},{"buffer":0,"byteLength":32,"byteOffset":306116},{"buffer":0,"byteLength":24,"byteOffset":306148},{"buffer":0,"byteLength":32,"byteOffset":306172}],"buffers":[{"byteLength":306204,"uri":"data:application/octet-stream;base64,"}]}